<svg xmlns="http://www.w3.org/2000/svg" width="512" height="512" viewBox="0 0 512 512" role="img" aria-label="Villa Go">
  <!-- 컨셉 B: 데스티네이션 핀 = 빌라. teal 라운드 타일(maskable 안전영역) + 흰 핀 -->
  <rect width="512" height="512" rx="112" fill="#0D9488"/>
  <g transform="translate(100 60) scale(2.6)">
    <!-- 핀(흰색) -->
    <path d="M60 2C29.6 2 5 26.6 5 57c0 39.6 47 86.5 53 92.2 1.1 1.1 2.9 1.1 4 0C68 143.5 115 96.6 115 57 115 26.6 90.4 2 60 2Z" fill="#FFFFFF"/>
    <!-- 빌라 실루엣(타일색 음각) -->
    <path d="M60 26 34 50v3h6v28h40V53h6v-3L60 26Z" fill="#0D9488"/>
    <!-- 문(흰색 음각) -->
    <rect x="53" y="63" width="14" height="18" rx="1.5" fill="#FFFFFF"/>
    <!-- 해 포인트(sand) -->
    <circle cx="60" cy="42" r="5" fill="#F59E0B"/>
  </g>
</svg>
